<svg width="544" height="195" viewBox="0 0 544 195" fill="none" xmlns="http://www.w3.org/2000/svg">
<path d="M139.97 139.593C139.287 139.194 139.225 139.135 139.153 139.12C138.78 139.041 138.406 138.952 138.028 138.903C114.184 135.787 92.427 141.887 72.135 154.068C67.358 156.935 63.393 160.827 61.293 166.219C60.128 169.212 60.599 171.411 63.116 173.364C64.48 174.423 66.083 175.288 67.71 175.873C72.432 177.572 77.381 177.761 82.251 176.959C102.248 173.666 119.176 164.604 132.653 149.395C135.312 146.394 137.48 142.958 139.97 139.593ZM145.893 122.727C147.657 112.703 145.518 103.995 138.723 96.7256C133.093 90.7036 125.601 88.4106 117.679 87.4216C104.817 85.8166 92.481 88.5086 80.314 92.3076C75.163 93.9166 72.065 93.3606 69.429 90.1656C66.298 86.3716 66.536 81.4076 70.346 78.2716C72.937 76.1396 75.931 74.5026 78.711 72.5936C87.373 66.6456 95.317 59.9296 101.167 51.0586C104.201 46.4596 106.28 41.4326 106.693 35.8356C107.753 21.5026 96.834 13.5636 83.243 18.2396C75.336 20.9606 69.852 26.6426 65.495 33.5086C58.137 45.1036 54.871 58.0776 53.119 71.4976C51.334 85.1666 51.302 98.8946 52.113 112.637C52.169 113.579 52.221 114.523 52.242 115.466C52.39 122.191 45.383 127.015 39.407 123.926C36.98 122.672 35.73 120.588 35.254 118.072C30.689 93.9656 18.827 74.0156 0.872 57.5146C0.601 57.2656 0.379 56.9636 0 56.5336C0.036 56.4916 0.072 56.4486 0.108 56.4066C6.262 49.2136 17.403 49.0826 23.628 56.2136C27.882 61.0866 31.773 66.3276 35.481 71.9276C35.989 68.5996 36.358 65.7696 36.86 62.9636C39.478 48.3346 43.758 34.3086 52.319 21.9336C59.294 11.8526 68.217 4.28557 80.363 1.16557C98.76 -3.56043 117.351 6.48057 122.651 24.1266C125.757 34.4676 123.898 44.4236 119.072 53.7796C116.28 59.1916 112.71 64.2036 109.465 69.4356C112.139 69.5786 115.156 69.6136 118.145 69.9236C131.588 71.3166 143.489 76.1396 152.59 86.4446C162.401 97.5536 165.152 110.747 162.935 125.114C162.561 127.544 162.982 128.707 165.297 129.822C172.067 133.083 178.401 137.023 184.441 141.702C188.291 144.684 188.795 150.32 185.603 153.997L185.492 154.125C182.559 157.503 177.506 158.053 173.936 155.356C168.588 151.315 163.122 147.557 156.881 144.745C156.181 145.883 155.538 146.984 154.842 148.05C138.511 173.084 115.835 188.653 86.229 193.641C76.059 195.354 66.023 194.875 56.657 189.765C46.875 184.428 42.199 175.419 43.881 164.727C45.027 157.448 48.886 151.599 54.058 146.568C62.483 138.373 72.75 133.223 83.616 129.196C98.037 123.851 112.838 120.266 128.354 120.797C133.017 120.956 137.662 121.695 142.312 122.192C143.434 122.312 144.545 122.523 145.893 122.727Z" fill="white"/>
<path d="M198.863 115.476C198.874 119.653 196.583 123.329 193.224 125.282C191.566 126.241 189.646 126.787 187.628 126.754C185.818 126.732 184.116 126.274 182.622 125.489C179.023 123.624 176.568 119.872 176.536 115.541C176.514 112.127 178.095 109.019 180.539 106.936C182.513 105.245 185.043 104.231 187.77 104.263C189.145 104.274 190.464 104.547 191.675 105.027C195.853 106.663 198.841 110.753 198.863 115.476Z" fill="white"/>
<path d="M266.055 58.6003C274.332 61.1143 279.462 65.5153 281.447 71.8073C282.688 76.0433 282.355 79.9813 280.454 83.6213C278.635 86.9313 275.738 89.6153 271.764 91.6663C267.377 93.9183 262.58 95.0393 257.369 95.0393C251.491 95.0393 246.36 93.6863 241.977 90.9673C240.816 90.1753 240.135 89.1833 239.93 87.9913C239.721 86.7983 240.095 85.7263 241.047 84.7643C241.995 83.8033 243.219 83.2603 244.709 83.1273C246.196 82.9933 247.562 83.2923 248.803 84.0173C251.535 85.6053 254.45 86.3713 257.556 86.3043C260.657 86.2373 263.407 85.5743 265.806 84.3153C270.523 81.9343 272.178 78.4593 270.772 73.8893C270.358 72.5013 269.593 71.2773 268.476 70.2183C267.359 69.1593 266.117 68.3143 264.751 67.6863C263.39 67.0543 261.69 66.5253 259.665 66.0983C257.636 65.6663 255.794 65.3683 254.139 65.2033C252.483 65.0393 250.543 64.8873 248.305 64.7543C246.485 64.6923 245.203 64.5893 244.46 64.4563C242.805 64.2603 241.501 63.7793 240.549 63.0193C239.597 62.2583 239.04 61.6263 238.876 61.1323C238.707 60.6343 238.627 60.1533 238.627 59.6903C238.627 58.3693 239.45 57.0113 241.11 55.6193C241.604 55.2233 242.516 54.4933 243.837 53.4343C249.133 49.3313 252.732 46.0213 254.637 43.5063C257.12 40.1963 257.409 37.6153 255.505 35.7593C253.769 34.1713 251.74 33.2773 249.422 33.0813C245.782 32.8803 241.563 34.1403 236.762 36.8543L232.544 93.0543C232.459 94.1803 231.903 95.1413 230.866 95.9333C229.834 96.7303 228.57 97.1263 227.084 97.1263H226.835C225.259 97.0593 223.978 96.5793 222.986 95.6843C221.993 94.7943 221.539 93.7173 221.62 92.4583L225.967 34.2733C226.047 33.0813 226.666 32.0883 227.827 31.2923C229.647 29.9703 231.881 28.7473 234.528 27.6163C240.073 25.1693 245.283 24.0793 250.169 24.3413C255.545 24.6753 260.097 26.5933 263.821 30.0993C266.718 32.8803 268.044 36.0263 267.795 39.5333C267.546 42.2473 266.304 45.0953 264.07 48.0723C262.086 50.6573 259.229 53.4693 255.505 56.5133C259.478 56.9763 262.994 57.6743 266.055 58.6003Z" fill="white"/>
<path d="M315.456 81.6368C316.528 80.6448 317.481 79.5188 318.308 78.2598C315.661 76.8708 312.929 76.1418 310.116 76.0748H309.622C305.729 76.0748 302.627 76.9688 300.313 78.7578C299.317 79.5498 298.551 80.4618 298.017 81.4858C297.474 82.5138 297.412 83.4208 297.83 84.2178C298.574 85.6058 300.518 86.2378 303.664 86.1048C308.381 85.9708 312.31 84.4848 315.456 81.6368ZM334.942 87.6928C335.934 88.6228 336.37 89.6958 336.245 90.9188C336.121 92.1468 335.48 93.1218 334.319 93.8518C333.326 94.5768 332.129 94.9418 330.723 94.9418C329.063 94.9418 327.702 94.4428 326.625 93.4508C325.299 92.1958 324.142 90.3408 323.15 87.8928C320.747 89.9448 317.877 91.5998 314.522 92.8548C311.171 94.1138 307.718 94.8078 304.158 94.9418H303.041C300.144 94.9418 297.497 94.5098 295.098 93.6508C291.623 92.3248 289.18 90.3098 287.774 87.5948C286.533 85.1428 286.35 82.5628 287.218 79.8478C288.085 77.1338 289.888 74.6868 292.615 72.5018C297.248 68.9238 303.166 67.2058 310.365 67.3358C314.17 67.4018 317.814 68.1318 321.29 69.5198C321.37 69.2578 321.414 69.0258 321.414 68.8258C321.824 64.9238 321.37 62.0758 320.048 60.2868C319.136 59.2278 317.752 58.4978 315.888 58.1018C314.028 57.7058 312.061 57.6398 309.992 57.9068C306.516 58.3688 303.913 59.5258 302.173 61.3818C301.181 62.3068 299.94 62.8548 298.449 63.0188C296.958 63.1838 295.614 62.8858 294.417 62.1248C293.216 61.3638 292.531 60.3848 292.366 59.1968C292.202 58.0038 292.575 56.9448 293.483 56.0198C296.958 52.3798 301.84 50.1278 308.132 49.2648C312.679 48.6688 316.88 48.9668 320.729 50.1598C324.578 51.3518 327.453 53.2388 329.357 55.8198C331.92 59.1968 332.912 63.7618 332.334 69.5198C331.671 75.7458 332.045 80.8088 333.451 84.7158C334.029 86.3048 334.528 87.2968 334.942 87.6928Z" fill="white"/>
<path d="M386.576 58.2C390.296 62.24 392.201 67.504 392.285 73.992C392.285 80.742 390.176 86.038 385.953 89.878C382.313 93.188 378.135 94.844 373.418 94.844C372.426 94.844 371.433 94.777 370.437 94.643C367.046 94.114 364.025 92.757 361.377 90.572C358.894 88.587 357.034 86.202 355.792 83.421C355.543 82.629 355.503 81.85 355.668 81.089C355.833 80.329 356.246 79.648 356.909 79.056C357.572 78.46 358.356 78.059 359.268 77.863C360.674 77.467 362.062 77.534 363.424 78.059C364.79 78.593 365.72 79.421 366.218 80.542C366.797 81.935 367.687 83.141 368.888 84.169C370.085 85.197 371.309 85.806 372.55 86.006C374.286 86.269 375.981 85.642 377.636 84.12C380.035 81.935 381.236 78.558 381.236 73.992C381.236 69.422 380.079 65.916 377.761 63.464C376.604 62.209 375.051 61.382 373.107 60.981C371.162 60.585 369.32 60.75 367.584 61.479C365.266 62.472 362.992 64.559 360.758 67.736C358.191 71.576 356.042 76.604 354.302 82.829C353.808 84.747 353.35 86.669 352.936 88.587C352.936 88.85 352.856 89.184 352.691 89.58C352.606 89.78 352.566 89.913 352.566 89.976C352.646 90.968 352.335 91.898 351.636 92.757C350.929 93.62 349.959 94.212 348.717 94.545C347.311 94.875 345.945 94.759 344.624 94.198C343.297 93.633 342.385 92.792 341.891 91.666C338.91 84.186 338.247 71.972 339.907 55.023C340.65 46.884 341.722 39.271 343.133 32.187C343.382 30.994 344.103 30.038 345.304 29.308C346.501 28.578 347.85 28.316 349.336 28.511C350.827 28.712 352.028 29.308 352.936 30.3C353.848 31.292 354.177 32.387 353.932 33.575C351.863 43.97 350.577 54.493 350.083 65.155C350.413 64.625 350.786 64.096 351.2 63.562C354.426 58.863 358.191 55.588 362.494 53.732C366.548 52.015 370.873 51.583 375.465 52.442C380.057 53.305 383.759 55.223 386.576 58.2Z" fill="white"/>
<path d="M409.105 44.8462C407.904 45.8072 406.435 46.2882 404.695 46.2882C402.96 46.2882 401.491 45.8072 400.29 44.8462C399.089 43.8892 398.492 42.7282 398.492 41.3712C398.492 40.0142 399.089 38.8392 400.29 37.8472C401.491 36.8542 402.96 36.3562 404.695 36.3562C406.435 36.3562 407.904 36.8542 409.105 37.8472C410.302 38.8392 410.903 40.0142 410.903 41.3712C410.903 42.7282 410.302 43.8892 409.105 44.8462ZM408.42 56.7132C407.014 72.2032 407.552 83.0922 410.035 89.3792C410.529 90.5722 410.427 91.6972 409.724 92.7562C409.02 93.8152 407.926 94.5102 406.435 94.8432C405.937 94.9722 405.398 95.0392 404.82 95.0392C403.663 95.0392 402.586 94.7772 401.594 94.2472C400.601 93.7172 399.938 92.9882 399.609 92.0622C396.712 84.6492 396.009 72.6662 397.5 56.1172C397.58 54.9252 398.199 53.9322 399.36 53.1362C400.517 52.3442 401.861 51.9792 403.396 52.0462C404.922 52.1122 406.186 52.6112 407.178 53.5362C408.175 54.4622 408.584 55.5212 408.42 56.7132Z" fill="white"/>
<path d="M456.705 78.0592C458.111 77.6012 459.513 77.6012 460.923 78.0592C462.33 78.5262 463.322 79.3182 463.9 80.4442C464.479 81.5702 464.479 82.6962 463.9 83.8212C462.494 86.4692 460.3 88.7212 457.324 90.5722C454.347 92.4272 450.871 93.6862 446.898 94.3452C444.829 94.7412 442.719 94.9412 440.566 94.9412C438.252 94.9412 436.014 94.7102 433.864 94.2472C429.148 93.3882 425.258 91.8002 422.197 89.4812C416.568 85.2452 413.756 79.7142 413.756 72.8972C413.756 69.4582 414.583 66.1112 416.239 62.8682C417.979 59.5612 420.462 56.7142 423.688 54.3292C426.994 51.8812 431.052 50.2572 435.849 49.4652C440.65 48.6682 445.202 48.8382 449.505 49.9592C453.394 51.0182 456.371 52.8382 458.44 55.4232C460.51 58.0712 461.213 60.9992 460.55 64.2112C459.887 67.4202 457.987 70.2852 454.841 72.7992C450.288 76.5062 444.495 78.3572 437.464 78.3572C435.893 78.3572 434.318 78.2592 432.747 78.0592C431.177 77.8632 429.935 77.2852 429.023 76.3242C428.111 75.3622 427.781 74.2862 428.031 73.0982C428.28 71.9052 429.001 70.9442 430.202 70.2192C431.404 69.4892 432.747 69.1912 434.238 69.3242C439.778 69.9872 444.041 69.0932 447.022 66.6412C448.179 65.7152 448.985 64.7052 449.443 63.6152C449.897 62.5202 449.795 61.3462 449.132 60.0862C448.468 59.2282 447.392 58.6312 445.905 58.3022C443.587 57.6392 441.002 57.5412 438.145 58.0042C435.293 58.4672 432.952 59.3922 431.132 60.7852C426.914 63.8952 424.76 67.9672 424.68 72.9952C424.68 77.2362 426.335 80.5782 429.646 83.0252C431.381 84.3512 433.615 85.2592 436.347 85.7572C439.079 86.2512 441.847 86.2692 444.664 85.8062C449.296 85.0142 452.318 83.2252 453.724 80.4442C454.302 79.3182 455.294 78.5262 456.705 78.0592Z" fill="white"/>
<path d="M511.815 53.4343C513.306 55.3563 514.151 57.4923 514.36 59.8423C514.565 62.1913 514.089 64.4253 512.932 66.5433C512.269 67.6023 511.214 68.3453 509.768 68.7773C508.318 69.2083 506.911 69.1593 505.545 68.6303C504.184 68.1003 503.249 67.2733 502.755 66.1473C502.257 65.0213 502.297 63.8953 502.88 62.7703C503.872 61.1813 503.788 59.6283 502.631 58.1023C501.554 56.8473 499.569 56.2153 496.672 56.2153C492.454 56.2153 489.099 57.3763 486.62 59.6903C485.624 60.6203 485.107 61.7423 485.067 63.0683C485.023 64.3943 485.521 65.4843 486.558 66.3433C487.59 67.2063 489.348 68.1323 491.831 69.1243C492.16 69.2573 492.699 69.4583 493.446 69.7203C496.753 70.9793 499.236 72.1053 500.891 73.0973C503.374 74.6863 505.114 76.6043 506.106 78.8553C507.263 81.4363 507.263 83.9863 506.106 86.5003C504.78 89.6153 502.132 91.8623 498.163 93.2553C495.76 94.1143 493.113 94.5453 490.22 94.5453C489.637 94.5453 489.059 94.5103 488.48 94.4433C485.17 94.2473 482.046 93.5843 479.109 92.4583C476.172 91.3323 473.712 89.8463 471.723 87.9913C469.738 86.2023 468.287 84.1193 467.38 81.7343C466.966 80.6093 467.09 79.5013 467.753 78.4103C468.412 77.3163 469.467 76.5903 470.917 76.2263C472.363 75.8613 473.774 75.9593 475.136 76.5243C476.502 77.0843 477.392 77.9303 477.805 79.0563C478.304 80.2443 479.047 81.3073 480.039 82.2333C482.273 84.2843 485.379 85.4413 489.348 85.7083C490.59 85.7753 491.871 85.6593 493.197 85.3613C494.519 85.0633 495.386 84.4843 495.805 83.6213C496.383 82.2993 495.805 81.0763 494.065 79.9463C493.153 79.4203 491.417 78.6553 488.854 77.6633C488.107 77.4003 487.528 77.2003 487.114 77.0673C483.31 75.6123 480.413 73.9923 478.428 72.2033C475.612 69.6893 474.183 66.6593 474.143 63.1173C474.103 59.5753 475.487 56.5133 478.304 53.9323C480.453 51.9483 483.185 50.3733 486.496 49.2163C489.802 48.0593 493.197 47.4763 496.672 47.4763C503.623 47.4763 508.669 49.4653 511.815 53.4343Z" fill="white"/>
<path d="M273.752 130.913C278.3 138.923 279.501 149.086 277.352 161.398C277.183 162.457 276.582 163.352 275.55 164.077C274.513 164.807 273.334 165.172 272.012 165.172C271.763 165.172 271.518 165.136 271.269 165.069C269.694 164.94 268.452 164.393 267.545 163.432C266.632 162.475 266.303 161.363 266.552 160.108C268.372 149.517 267.46 141.009 263.82 134.588C262.579 132.47 260.736 130.846 258.298 129.72C255.855 128.599 253.394 128.301 250.911 128.826C246.444 129.756 242.635 133.992 239.493 141.539C237.753 145.708 236.392 150.937 235.395 157.229C235.23 159.609 234.901 161.331 234.403 162.39C233.824 163.449 232.934 164.21 231.737 164.673C230.536 165.136 229.272 165.238 227.95 164.971C226.624 164.709 225.57 164.113 224.787 163.183C223.999 162.257 223.688 161.265 223.852 160.206C224.017 158.884 224.226 157.656 224.475 156.53C224.555 153.887 224.431 150.176 224.101 145.41C223.608 137.863 222.775 129.689 221.618 120.883C221.454 119.691 221.845 118.636 222.798 117.706C223.75 116.781 224.991 116.251 226.522 116.118C228.053 115.989 229.397 116.3 230.558 117.061C231.715 117.822 232.374 118.801 232.543 119.989C232.956 123.299 233.37 126.646 233.784 130.019C237.509 124.723 242.305 121.48 248.184 120.287C253.474 119.232 258.609 119.793 263.571 121.978C268.123 124.029 271.518 127.006 273.752 130.913Z" fill="white"/>
<path d="M330.474 128.826C334.194 132.866 336.099 138.13 336.183 144.618C336.183 151.368 334.074 156.664 329.851 160.504C326.211 163.814 322.033 165.47 317.316 165.47C316.324 165.47 315.331 165.403 314.335 165.269C310.944 164.74 307.923 163.383 305.275 161.198C302.792 159.213 300.932 156.828 299.69 154.047C299.441 153.255 299.401 152.476 299.566 151.715C299.731 150.955 300.144 150.274 300.807 149.682C301.47 149.086 302.254 148.685 303.166 148.489C304.572 148.093 305.96 148.16 307.322 148.685C308.688 149.219 309.618 150.047 310.116 151.168C310.695 152.561 311.585 153.767 312.786 154.795C313.983 155.823 315.207 156.432 316.448 156.632C318.184 156.895 319.879 156.268 321.534 154.746C323.933 152.561 325.134 149.184 325.134 144.618C325.134 140.048 323.977 136.542 321.659 134.09C320.502 132.835 318.949 132.008 317.005 131.607C315.06 131.211 313.218 131.376 311.482 132.105C309.164 133.098 306.89 135.185 304.656 138.362C302.089 142.202 299.94 147.23 298.2 153.455C297.706 155.373 297.248 157.295 296.834 159.213C296.834 159.476 296.754 159.81 296.589 160.206C296.504 160.406 296.464 160.539 296.464 160.602C296.544 161.594 296.233 162.524 295.534 163.383C294.827 164.246 293.857 164.838 292.615 165.171C291.209 165.501 289.843 165.385 288.522 164.824C287.196 164.259 286.283 163.418 285.789 162.293C282.808 154.812 282.145 142.598 283.805 125.649C284.548 117.51 285.62 109.897 287.031 102.813C287.28 101.62 288.001 100.664 289.202 99.9342C290.399 99.2042 291.748 98.9422 293.234 99.1372C294.725 99.3382 295.926 99.9342 296.834 100.926C297.746 101.918 298.075 103.013 297.83 104.201C295.761 114.596 294.475 125.119 293.981 135.781C294.311 135.251 294.685 134.722 295.098 134.188C298.324 129.489 302.089 126.214 306.392 124.358C310.446 122.641 314.771 122.209 319.363 123.068C323.955 123.931 327.657 125.849 330.474 128.826Z" fill="white"/>
<path d="M369.449 152.263C370.521 151.271 371.474 150.145 372.301 148.886C369.654 147.497 366.922 146.768 364.109 146.701H363.615C359.722 146.701 356.62 147.595 354.306 149.384C353.31 150.176 352.544 151.088 352.01 152.112C351.467 153.14 351.405 154.047 351.823 154.844C352.567 156.232 354.511 156.864 357.657 156.731C362.374 156.597 366.303 155.111 369.449 152.263ZM388.935 158.319C389.927 159.249 390.363 160.321 390.238 161.545C390.114 162.773 389.473 163.748 388.312 164.478C387.319 165.203 386.122 165.568 384.716 165.568C383.056 165.568 381.695 165.069 380.618 164.077C379.292 162.822 378.135 160.967 377.143 158.519C374.74 160.571 371.87 162.226 368.515 163.481C365.164 164.74 361.711 165.434 358.151 165.568H357.034C354.137 165.568 351.49 165.136 349.091 164.277C345.616 162.951 343.173 160.936 341.767 158.221C340.525 155.769 340.343 153.189 341.211 150.474C342.078 147.76 343.881 145.312 346.608 143.128C351.241 139.55 357.159 137.832 364.358 137.962C368.163 138.028 371.807 138.758 375.283 140.146C375.363 139.884 375.407 139.652 375.407 139.452C375.817 135.55 375.363 132.702 374.041 130.913C373.129 129.854 371.745 129.124 369.881 128.728C368.021 128.332 366.054 128.266 363.985 128.533C360.509 128.995 357.906 130.152 356.166 132.008C355.174 132.933 353.933 133.481 352.442 133.645C350.951 133.81 349.607 133.512 348.41 132.751C347.209 131.99 346.524 131.011 346.359 129.823C346.194 128.63 346.568 127.571 347.476 126.646C350.951 123.006 355.833 120.754 362.125 119.891C366.672 119.295 370.873 119.593 374.722 120.786C378.571 121.978 381.446 123.865 383.35 126.446C385.913 129.823 386.905 134.388 386.327 140.146C385.664 146.372 386.038 151.435 387.444 155.342C388.022 156.931 388.521 157.923 388.935 158.319Z" fill="white"/>
<path d="M440.57 128.826C444.29 132.866 446.195 138.13 446.279 144.618C446.279 151.368 444.17 156.664 439.947 160.504C436.307 163.814 432.129 165.47 427.412 165.47C426.42 165.47 425.427 165.403 424.431 165.269C421.04 164.74 418.019 163.383 415.371 161.198C412.888 159.213 411.028 156.828 409.786 154.047C409.537 153.255 409.497 152.476 409.662 151.715C409.826 150.955 410.24 150.274 410.903 149.682C411.566 149.086 412.35 148.685 413.262 148.489C414.668 148.093 416.056 148.16 417.418 148.685C418.784 149.219 419.714 150.047 420.212 151.168C420.791 152.561 421.681 153.767 422.882 154.795C424.079 155.823 425.303 156.432 426.544 156.632C428.28 156.895 429.975 156.268 431.63 154.746C434.029 152.561 435.23 149.184 435.23 144.618C435.23 140.048 434.073 136.542 431.755 134.09C430.598 132.835 429.045 132.008 427.101 131.607C425.156 131.211 423.314 131.376 421.578 132.105C419.26 133.098 416.986 135.185 414.752 138.362C412.185 142.202 410.036 147.23 408.296 153.455C407.802 155.373 407.343 157.295 406.93 159.213C406.93 159.476 406.85 159.81 406.685 160.206C406.6 160.406 406.56 160.539 406.56 160.602C406.64 161.594 406.329 162.524 405.63 163.383C404.923 164.246 403.953 164.838 402.711 165.171C401.305 165.501 399.939 165.385 398.618 164.824C397.291 164.259 396.379 163.418 395.885 162.293C392.904 154.812 392.241 142.598 393.901 125.649C394.644 117.51 395.716 109.897 397.127 102.813C397.376 101.62 398.097 100.664 399.298 99.9342C400.495 99.2042 401.844 98.9422 403.33 99.1372C404.82 99.3382 406.022 99.9342 406.93 100.926C407.842 101.918 408.171 103.013 407.926 104.201C405.857 114.596 404.571 125.119 404.077 135.781C404.407 135.251 404.78 134.722 405.194 134.188C408.42 129.489 412.185 126.214 416.488 124.358C420.542 122.641 424.867 122.209 429.459 123.068C434.051 123.931 437.753 125.849 440.57 128.826Z" fill="white"/>
<path d="M479.545 152.263C480.617 151.271 481.57 150.145 482.397 148.886C479.75 147.497 477.018 146.768 474.205 146.701H473.711C469.818 146.701 466.716 147.595 464.402 149.384C463.406 150.176 462.64 151.088 462.106 152.112C461.563 153.14 461.501 154.047 461.919 154.844C462.663 156.232 464.607 156.864 467.753 156.731C472.47 156.597 476.399 155.111 479.545 152.263ZM499.031 158.319C500.023 159.249 500.459 160.321 500.334 161.545C500.21 162.773 499.569 163.748 498.408 164.478C497.415 165.203 496.218 165.568 494.812 165.568C493.152 165.568 491.791 165.069 490.714 164.077C489.388 162.822 488.231 160.967 487.239 158.519C484.836 160.571 481.966 162.226 478.611 163.481C475.26 164.74 471.807 165.434 468.247 165.568H467.13C464.233 165.568 461.586 165.136 459.187 164.277C455.712 162.951 453.269 160.936 451.863 158.221C450.621 155.769 450.439 153.189 451.307 150.474C452.174 147.76 453.977 145.312 456.704 143.128C461.337 139.55 467.255 137.832 474.454 137.962C478.259 138.028 481.903 138.758 485.379 140.146C485.459 139.884 485.503 139.652 485.503 139.452C485.913 135.55 485.459 132.702 484.137 130.913C483.225 129.854 481.841 129.124 479.977 128.728C478.117 128.332 476.15 128.266 474.081 128.533C470.605 128.995 468.002 130.152 466.262 132.008C465.27 132.933 464.029 133.481 462.538 133.645C461.047 133.81 459.703 133.512 458.506 132.751C457.305 131.99 456.62 131.011 456.455 129.823C456.29 128.63 456.664 127.571 457.572 126.646C461.047 123.006 465.929 120.754 472.221 119.891C476.768 119.295 480.969 119.593 484.818 120.786C488.667 121.978 491.542 123.865 493.446 126.446C496.009 129.823 497.001 134.388 496.423 140.146C495.76 146.372 496.134 151.435 497.54 155.342C498.118 156.931 498.617 157.923 499.031 158.319Z" fill="white"/>
<path d="M541.956 42.7069C541.963 37.5199 537.698 33.2119 532.487 33.2399C527.264 33.2689 523.084 37.3539 523.027 42.6549C522.972 47.8659 527.282 52.1549 532.461 52.1599C537.662 52.1649 541.949 47.8969 541.956 42.7069ZM532.482 53.6789C526.374 53.6789 521.493 48.7449 521.495 42.5749C521.497 36.5839 526.493 31.6729 532.618 31.7149C538.648 31.7559 543.606 36.7599 543.475 42.9439C543.349 48.8559 538.483 53.6879 532.482 53.6789Z" fill="white"/>
<path d="M529.887 38.2606V41.8806C529.97 41.8956 530.033 41.9156 530.096 41.9156C531.152 41.9166 532.209 41.9396 533.264 41.9046C534.241 41.8726 534.992 41.0686 535.005 40.1146C535.017 39.1646 534.231 38.3026 533.247 38.2696C532.144 38.2316 531.038 38.2606 529.887 38.2606ZM536.637 47.9156H535.133C534.935 46.3946 534.464 45.0046 533.217 44.0146C532.222 43.2246 531.042 43.5446 529.879 43.4776V47.8646H528.366V36.7456H529.08C530.424 36.7456 531.768 36.7456 533.113 36.7456C534.679 36.7456 536.015 37.7386 536.41 39.1956C536.824 40.7216 536.176 42.2486 534.771 43.0536C534.728 43.0786 534.685 43.1026 534.605 43.1486C535.858 44.4746 536.522 46.0486 536.637 47.9156Z" fill="white"/>
<path d="M274.695 194.533V177.424H275.661V193.563H282.184V194.533H274.695Z" fill="white"/>
<path d="M287.734 194.533H286.768V177.424H287.734V194.533Z" fill="white"/>
<path d="M297.358 178.394V194.533H296.401V178.394H292.072V177.424H301.692V178.394H297.358Z" fill="white"/>
<path d="M310.231 178.394V194.533H309.274V178.394H304.945V177.424H314.565V178.394H310.231Z" fill="white"/>
<path d="M318.784 194.533V177.424H319.75V193.563H326.273V194.533H318.784Z" fill="white"/>
<path d="M339.288 177.424V178.394H331.701V185.496H339.288V186.461H331.701V193.563H339.288V194.533H330.736V177.424H339.288Z" fill="white"/>
<path d="M361.604 191C361.515 190.96 361.426 190.915 361.337 190.867C360.999 190.675 360.572 190.31 360.055 189.776C359.717 189.465 359.473 189.265 359.33 189.185C359.174 189.104 359.019 189.064 358.858 189.064C358.769 189.064 358.681 189.073 358.591 189.087C358.333 189.162 358.138 189.309 358.009 189.536C357.92 189.696 357.875 189.856 357.875 190.008C357.875 190.097 357.888 190.186 357.915 190.275C357.986 190.533 358.129 190.72 358.338 190.831C358.476 190.902 358.658 190.938 358.894 190.938C359.023 190.938 359.166 190.929 359.33 190.902L359.232 191.788C359.054 191.837 358.876 191.859 358.698 191.859C358.418 191.859 358.138 191.788 357.866 191.641C357.439 191.4 357.154 191.027 357.016 190.528C356.972 190.35 356.945 190.177 356.945 190.008C356.945 189.692 357.03 189.389 357.199 189.087C357.466 188.637 357.848 188.344 358.351 188.206C358.525 188.157 358.698 188.134 358.867 188.134C359.183 188.134 359.486 188.219 359.775 188.388C360.06 188.539 360.429 188.86 360.888 189.345C361.301 189.714 361.604 189.954 361.795 190.07C362.013 190.19 362.236 190.252 362.463 190.252C362.592 190.252 362.721 190.23 362.85 190.19C363.219 190.092 363.504 189.874 363.695 189.536C363.816 189.318 363.878 189.096 363.878 188.873C363.878 188.748 363.86 188.624 363.816 188.495C363.722 188.134 363.509 187.854 363.175 187.663C362.975 187.547 362.748 187.494 362.498 187.494C362.32 187.494 362.134 187.52 361.929 187.578L361.92 186.621C362.12 186.564 362.316 186.537 362.512 186.537C362.89 186.537 363.259 186.639 363.624 186.848C364.18 187.164 364.545 187.627 364.714 188.241C364.768 188.459 364.799 188.668 364.799 188.873C364.799 189.26 364.697 189.629 364.496 189.985C364.18 190.542 363.709 190.907 363.081 191.085C362.894 191.133 362.716 191.16 362.547 191.169C362.312 191.934 361.889 192.624 361.275 193.238C360.287 194.239 359.09 194.738 357.697 194.738C356.3 194.738 355.107 194.244 354.115 193.252C353.123 192.259 352.624 191.062 352.624 189.656C352.624 188.263 353.114 187.044 354.088 186.003C354.76 185.287 355.632 184.744 356.705 184.383C356.189 184.165 355.659 183.769 355.125 183.195C354.587 182.626 354.32 181.834 354.32 180.823C354.32 179.84 354.671 178.995 355.379 178.287C356.086 177.575 356.936 177.219 357.937 177.219C358.939 177.219 359.793 177.575 360.5 178.287C360.896 178.665 361.168 179.088 361.315 179.555L360.456 179.893C360.327 179.546 360.113 179.23 359.824 178.937C359.299 178.421 358.672 178.163 357.937 178.163C357.203 178.163 356.576 178.421 356.055 178.937C355.535 179.453 355.276 180.085 355.276 180.823C355.276 181.558 355.53 182.194 356.033 182.732C356.536 183.266 357.003 183.618 357.43 183.778C357.857 183.938 358.391 184.023 359.028 184.032V184.939L358.262 184.953C356.7 185.251 355.526 185.825 354.742 186.679C353.959 187.538 353.572 188.53 353.572 189.656C353.572 190.795 353.973 191.765 354.774 192.575C355.575 193.381 356.549 193.781 357.697 193.781C358.823 193.781 359.793 193.381 360.598 192.575C361.066 192.104 361.404 191.583 361.604 191Z" fill="white"/>
<path d="M391.773 191.81L392.512 192.464C390.843 193.981 388.876 194.738 386.62 194.738C384.191 194.738 382.126 193.888 380.417 192.179C378.713 190.475 377.859 188.406 377.859 185.981C377.859 183.569 378.713 181.504 380.417 179.791C382.126 178.078 384.191 177.219 386.62 177.219C388.876 177.219 390.843 177.985 392.512 179.506L391.773 180.161C390.305 178.861 388.587 178.212 386.62 178.212C384.475 178.212 382.642 178.972 381.12 180.485C379.598 182.003 378.838 183.836 378.838 185.981C378.838 188.135 379.598 189.968 381.12 191.485C382.642 193.003 384.475 193.759 386.62 193.759C388.587 193.759 390.305 193.109 391.773 191.81Z" fill="white"/>
<path d="M405.261 178.162C403.116 178.162 401.278 178.927 399.757 180.449C398.23 181.975 397.469 183.809 397.469 185.953C397.469 188.107 398.23 189.949 399.757 191.471C401.278 192.997 403.116 193.758 405.261 193.758C407.415 193.758 409.252 192.997 410.779 191.471C412.301 189.949 413.061 188.107 413.061 185.953C413.061 183.809 412.301 181.975 410.779 180.449C409.252 178.927 407.415 178.162 405.261 178.162ZM411.473 179.755C413.186 181.468 414.045 183.537 414.045 185.953C414.045 188.383 413.186 190.452 411.473 192.165C409.76 193.883 407.686 194.737 405.261 194.737C402.84 194.737 400.771 193.883 399.058 192.165C397.345 190.452 396.49 188.383 396.49 185.953C396.49 183.537 397.345 181.468 399.058 179.755C400.771 178.042 402.84 177.183 405.261 177.183C407.686 177.183 409.76 178.042 411.473 179.755Z" fill="white"/>
<path d="M433.592 177.424V194.533H432.622V178.465L426.005 187.142L419.375 178.465V194.533H418.409V177.424H419.811L426.005 185.531L432.186 177.424H433.592Z" fill="white"/>
<path d="M446.043 177.424V178.394H439.52V185.496H446.043V186.461H439.52V194.533H438.554V177.424H446.043Z" fill="white"/>
<path d="M455.41 187.614L449.532 177.424H450.631L455.895 186.551L461.159 177.424H462.258L456.38 187.614V194.533H455.41V187.614Z" fill="white"/>
<path d="M29.3572 43.8478C25.1482 38.6258 19.9012 36.6098 13.0412 37.9608C12.7662 38.0148 12.6112 37.6888 12.8272 37.5098C18.1752 33.0838 20.0662 27.7438 18.6822 21.1268C18.6232 20.8458 18.9632 20.6878 19.1402 20.9138C23.3242 26.2408 28.6362 28.1408 35.4432 26.8698C35.7172 26.8188 35.8702 27.1458 35.6542 27.3228C30.3322 31.7028 28.4422 36.9718 29.8122 43.6328C29.8692 43.9108 29.5352 44.0688 29.3572 43.8478Z" fill="white"/>
</svg>
